<svg width="112" height="122" viewBox="0 0 112 122" fill="none" xmlns="http://www.w3.org/2000/svg">
<path d="M0 120.376V14.5566C0 13.9735 0.494083 13.5024 1.07715 13.4995C3.08365 13.4892 7.91157 13.2337 15.7129 11.4462C28.0419 8.62117 38.6091 0 56.6761 0C74.7431 0 83.9582 8.62097 96.2871 11.4458C104.088 13.2333 108.916 13.4887 110.923 13.4988C111.506 13.5018 112 13.9729 112 14.556V120.376C112 120.928 111.552 121.376 111 121.376H1C0.447715 121.376 0 120.928 0 120.376Z" fill="#A8281E"/>
<path d="M83.8539 18.3695C84.388 18.3208 86.8643 19.5905 86.8643 19.5905C86.8643 19.5905 89.0493 20.128 89.4863 20.5662C89.9718 21.0531 89.8262 22.1711 89.8262 23.437V54.0116C89.8262 55.1315 89.6319 56.933 90.166 57.4686C90.8458 58.1503 93.4192 57.8094 94.8759 57.8094H101.624C102.45 57.8094 103.421 57.7607 103.809 58.1503C104.246 58.5885 104.149 60.0005 104.149 60.9743C104.149 62.0942 104.295 63.214 103.809 63.7496C103.178 64.3339 96.7695 64.0905 95.5556 64.0905H86.8643C85.6019 64.0905 83.4654 64.3339 82.9313 63.7009C82.3972 63.1167 82.64 60.7308 82.64 59.4162V21.2928C82.64 19.8321 82.5915 18.5156 83.8539 18.3695Z" fill="#F9F5F4"/>
<path d="M61.0367 12.657C61.5865 12.6083 64.1743 13.234 64.1743 13.234C64.1743 13.234 66.2638 13.4306 66.7137 13.8688C67.2135 14.3557 67.1846 15.1889 67.1846 16.4548V54.0126C67.1846 55.1325 66.9847 56.934 67.5345 57.4696C68.2343 58.1513 70.8834 57.8104 72.3829 57.8104H77.4251C78.2748 57.8104 79.2745 57.7618 79.6743 58.1513C80.1242 58.5895 80.0242 60.0015 80.0242 60.9753C80.0242 62.0952 80.1742 63.2151 79.6743 63.7507C79.0245 64.3349 74.3322 64.0915 73.0826 64.0915H64.1357C62.8361 64.0915 60.6369 64.3349 60.087 63.702C59.5372 63.1177 59.7871 60.7319 59.7871 59.4172V14.9454C59.7871 13.4847 59.7372 12.8031 61.0367 12.657Z" fill="#F9F5F4"/>
<path d="M53.5331 11.9958C53.5331 11.9958 46.5387 12.8246 42.1696 13.9003C40.3164 14.3565 39.0978 14.5028 37.464 15.2194C35.8301 15.9361 36.3126 18.237 36.3126 19.919V59.3673C36.3126 60.9008 36.0623 63.1269 36.663 63.7205C37.2637 64.3142 40.017 64.0668 41.2185 64.0668H50.93C52.2816 64.0668 54.6845 64.3636 55.4854 63.77C56.0361 63.3742 55.8859 61.9891 55.8859 60.8513C55.8859 59.8125 56.0861 58.5758 55.5355 58.0316C55.135 57.6359 53.9336 57.6853 52.8823 57.6853H46.7751C45.7238 57.6853 44.5724 57.7843 44.0718 57.339C43.4211 56.6959 43.7214 47.7093 43.7214 46.4231C43.7214 44.9391 43.4211 42.4656 44.0718 41.8225C44.5224 41.3773 45.6737 41.4762 46.7751 41.4762H52.5319C53.5331 41.4762 54.6845 41.5257 55.0849 41.13C55.6857 40.5363 55.6857 35.9852 55.0849 35.441C54.6344 34.9958 53.6833 35.0948 52.5319 35.0948H46.6749C45.8239 35.0948 44.5224 35.1937 44.0718 34.7485C43.4711 34.1548 43.7214 26.8281 43.7214 26.8281C43.7214 26.8281 43.4711 21.2217 44.0718 20.6281C44.5224 20.1828 45.4641 20.0298 46.725 19.6469C47.9859 19.2641 51.2875 18.6741 52.7321 18.3773C54.1768 18.0804 54.9848 18.4762 55.4854 18.0804C56.0361 17.6847 55.869 16.3425 55.8859 15.2112C55.9025 14.104 56.0361 12.8862 55.5855 12.3915C55.2351 11.9463 54.3841 11.9958 53.5331 11.9958Z" fill="#F9F5F4"/>
<path d="M10.7959 25.0386C11.6337 24.8924 16.0693 23.8695 16.6607 24.4056C17.1042 24.893 16.9564 28.6495 16.9564 29.5755V40.8512C16.9564 41.826 16.7593 40.9924 17.3014 41.5286C17.8928 42.1134 19.5684 41.8697 20.6527 41.8697C21.7369 41.8697 23.5604 41.9672 24.004 41.5286C24.4968 41.0899 24.349 41.7285 24.349 40.8512V29.6243C24.349 28.552 24.2011 19.9117 24.6447 19.3756C25.1375 18.8395 26.3179 18.4863 27.9467 17.7648C29.5755 17.0433 30.953 16.3001 31.4459 16.8363C31.988 17.4698 31.7416 29.6243 31.7416 30.6965V59.5262C31.7416 60.8421 31.9387 63.1816 31.3966 63.7664C30.9038 64.2538 29.0802 64.1076 28.0453 64.1076C26.961 64.1076 25.2361 64.3025 24.694 63.7664C24.1026 63.1816 24.349 61.622 24.349 60.2086V46.2924C24.349 45.0739 25.0509 49.5309 24.5087 49.0436C23.9666 48.5075 21.8848 48.7417 20.6527 48.7417C19.3713 48.7417 17.3661 48.5324 16.7747 49.1172C16.2818 49.6046 16.9564 45.2689 16.9564 46.2924V60.2086C16.9564 61.232 17.2521 63.1328 16.6607 63.7664C16.1678 64.2538 14.3936 64.1076 13.3094 64.1076C12.2744 64.1076 10.5002 64.3025 9.95806 63.7664C9.41594 63.2303 9.61307 60.7934 9.61307 59.4775L9.61307 27.4267C9.61307 26.0133 9.51451 25.1848 10.7959 25.0386Z" fill="#F9F5F4"/>
<path d="M86.2181 71.9856C87.2997 71.8381 89.1681 71.9364 90.7414 71.9364H101.902C102.738 71.9364 103.574 71.8872 103.918 72.3297C104.36 72.8214 104.213 74.1489 104.213 75.1322C104.213 76.0663 104.36 77.5905 103.819 77.9838C103.328 78.3771 102.148 78.2788 101.115 78.2788H95.2155C94.0846 78.2788 93.0522 78.1805 92.6097 78.623C92.0197 79.2129 92.2655 80.9337 92.2655 82.2612C92.2655 83.392 92.0197 87.5126 92.6097 88.1026C93.0522 88.5451 94.3305 88.4468 95.1663 88.4468H100.919C102.049 88.4468 102.984 88.3485 103.426 88.791C104.016 89.3318 104.016 93.855 103.426 94.445C103.033 94.8383 101.902 94.7892 100.919 94.7892H95.2646C94.183 94.7892 93.0522 94.6908 92.6097 95.1333C91.9705 95.7725 92.2655 96.1751 92.2655 97.6501C92.2655 98.9284 91.9705 105.842 92.6097 106.481C93.1013 106.924 94.2321 106.825 95.2646 106.825H101.263C102.295 106.825 103.475 106.776 103.869 107.17C104.409 107.71 104.213 108.94 104.213 109.972C104.213 111.103 104.36 112.48 103.819 112.873C103.033 113.463 100.673 113.168 99.3454 113.168H89.8072C88.6272 113.168 85.9231 113.414 85.3331 112.824C84.7431 112.234 84.989 110.021 84.989 108.497V76.6563C84.989 74.9847 84.4973 72.0347 86.1198 71.9856H86.2181Z" fill="#F9F5F4"/>
<path d="M64.8774 72.0334C65.959 71.8859 67.8273 71.9843 69.3514 71.9843H78.103C79.3321 71.9843 81.8396 71.7876 82.2821 72.3776C82.7245 72.9676 82.5771 74.2459 82.5771 75.475C82.5771 76.655 82.7245 78.0317 82.2329 78.5233C81.2496 79.5558 78.2505 78.2283 77.1688 79.1625C76.5788 79.6541 76.7755 81.4733 76.7755 82.6041V109.381C76.7755 110.757 76.9721 112.282 76.4313 112.822C75.8905 113.363 74.3664 113.117 73.088 113.117C72.0064 113.117 70.2856 113.363 69.7448 112.822C69.2531 112.282 69.4498 110.61 69.4498 109.381V82.6041C69.4498 81.5224 69.6464 79.8016 69.1056 79.2116C68.1223 78.2283 64.9757 79.5066 64.0415 78.5233C63.5499 78.0808 63.6974 76.7042 63.6974 75.5242C63.6974 73.6559 63.3532 72.2301 64.8774 72.0334Z" fill="#F9F5F4"/>
<path d="M47.7855 71.0023C48.7197 70.9039 51.4238 70.7564 52.1613 71.2481C52.7021 71.5923 52.9479 72.4772 53.2921 73.3622C55.4554 79.213 56.4129 83.9267 58.6745 89.9741C60.4416 96.7951 63.2728 104.564 65.3869 110.218C65.6819 110.955 66.2227 112.037 65.9277 112.676C65.5344 113.463 63.9119 113.168 62.6336 113.168C61.257 113.168 59.5853 113.315 58.9462 112.922C58.2087 112.48 57.6187 110.218 57.2254 109.185L56.4879 107.17C56.242 106.58 56.0454 105.744 55.4554 105.498C54.8162 105.252 53.5379 105.351 52.5054 105.351H46.3597C45.4256 105.351 44.1964 105.203 43.4589 105.498C42.8198 105.744 42.5739 106.531 42.3281 107.17C41.7873 108.546 41.3448 109.775 40.7548 111.201C40.4598 111.988 40.1648 112.775 39.4765 113.02C38.6898 113.315 37.3132 113.168 35.9366 113.168C34.7566 113.168 33.0849 113.414 32.7899 112.676C32.5441 112.037 33.1341 110.906 33.4291 110.169C37.559 99.2048 41.7381 84.1787 45.8681 73.2639C46.3105 72.1331 46.458 71.1989 47.7855 71.0023ZM47.933 85.9978C47.343 87.9153 46.753 89.6853 46.163 91.7011C45.9172 92.5369 44.2011 98.1231 44.4961 98.8606C44.8402 99.6965 48.0805 99.4015 49.3097 99.4015C50.3913 99.4015 53.9266 99.6965 54.3199 99.0081C54.7624 98.2706 52.8496 92.5861 52.6038 91.7994C51.9154 89.7344 51.3255 87.9153 50.588 85.8503C50.3913 85.2604 49.8505 83.0479 49.113 83.2446C48.4247 83.3921 48.1297 85.3587 47.933 85.9978Z" fill="#F9F5F4"/>
<path d="M20.5819 71.4944C25.8918 71.2485 29.2842 74.2968 31.0542 78.0334C31.3 78.5742 31.6933 79.3117 31.595 79.9017C31.3983 80.8359 29.4809 81.18 28.6451 81.5242L26.9734 82.2125C26.5309 82.36 25.7934 82.7533 25.2035 82.5567C24.3676 82.36 24.2693 80.885 23.876 80.1475C23.1877 78.8692 21.4177 77.6893 19.4511 78.6234C18.6644 78.9676 18.1727 79.4592 17.6319 80.295C14.4024 87.0695 14.6252 92.6835 14.9694 97.7476C15.1661 100.157 16.3044 102.303 17.0911 103.974C18.0744 105.941 20.2377 107.76 22.7452 106.531C23.9743 105.941 24.8593 104.269 25.2035 102.745C25.351 101.909 25.6951 100.533 25.2526 99.8444C24.466 98.8611 22.1552 100.041 21.221 99.1069C20.631 98.5169 20.8769 97.0911 20.8769 95.9603C20.8769 94.8295 20.7294 93.3545 21.221 92.8628C21.6635 92.4203 22.991 92.5187 23.876 92.5187H29.9234C30.9067 92.5187 32.1358 92.4203 32.5292 92.8628C33.0208 93.3053 32.8733 94.5345 32.8733 95.567C32.8733 102.499 31.3983 108.498 27.6126 111.595C26.5309 112.431 25.056 113.217 23.4827 113.512C17.4844 114.742 13.3053 111.693 11.0929 108.203C9.56873 105.793 8.43792 102.45 8.04459 99.0577C7.06127 91.437 8.58541 79.4101 12.1745 75.3293C13.9937 73.2643 16.7469 71.691 20.5819 71.4944Z" fill="#F9F5F4"/>
</svg>
